<svg width="56" height="56" viewBox="0 0 56 56" xmlns="http://www.w3.org/2000/svg"><title>成员管理</title><g fill="none"><path d="M47.69 39.5l-4.345-7.506h-8.69L30.309 39.5l4.346 7.506h8.69l4.346-7.506zm2.31 0L44.5 49h-11L28 39.5l5.5-9.5h11l5.5 9.5zm-11 2a2 2 0 1 0 0-4 2 2 0 0 0 0 4zm0 2a4 4 0 1 1 0-8 4 4 0 0 1 0 8z" fill="#275CF0"/><path d="M23.236 21.637a9 9 0 1 1 9.528 0c.658.18 1.3.397 1.926.647A18.053 18.053 0 0 1 42.249 28h-2.627A15.95 15.95 0 0 0 28 23c-8.837 0-16 7.163-16 16v4h-2v-4c0-8.292 5.607-15.274 13.236-17.363zM28 21a7 7 0 1 0 0-14 7 7 0 0 0 0 14z" fill="#93B3FF"/></g></svg>