<svg width="14" height="24" viewBox="0 0 14 24" xmlns="http://www.w3.org/2000/svg"><title>Shape Copy 3</title><path d="M.592 13.458a2.019 2.019 0 0 1-.445-2.185c.018-.046.062-.083.083-.127.092-.187.192-.374.346-.531A24769 24769 0 0 0 10.508.591a1.988 1.988 0 0 1 2.824-.004c.392.392.588.909.588 1.423 0 .513-.194 1.028-.583 1.42l-6.45 6.512c-1.162.978-1.727 1.689-1.693 2.13.033.442.562 1.072 1.588 1.891l6.625 6.596c.395.392.593.911.593 1.43a2.01 2.01 0 0 1-.577 1.413c-.775.79-2.04.798-2.825.016L.592 13.458z" fill="#EAEAED"/></svg>