<svg width="14" height="24" viewBox="0 0 14 24" xmlns="http://www.w3.org/2000/svg"><title>Shape Copy 3</title><path d="M13.408 10.542c.591.587.74 1.455.445 2.185-.018.046-.062.083-.083.127a1.965 1.965 0 0 1-.346.531 24769 24769 0 0 0-9.932 10.024 1.988 1.988 0 0 1-2.824.004A2.01 2.01 0 0 1 .08 21.99c0-.513.194-1.028.583-1.42l6.45-6.512c1.162-.978 1.727-1.689 1.693-2.13-.033-.442-.562-1.072-1.588-1.891L.593 3.44A2.006 2.006 0 0 1 0 2.011C0 1.501.192.99.577.598A1.987 1.987 0 0 1 3.402.582l10.006 9.96z" fill="#EAEAED"/></svg>