<svg width="14" height="24" viewBox="0 0 14 24" xmlns="http://www.w3.org/2000/svg"><title>Shape Copy 3</title><path d="M13.408 13.458c.591-.587.74-1.455.445-2.185-.018-.046-.061-.083-.083-.127a1.964 1.964 0 0 0-.346-.531c-.005-.004-3.316-3.345-9.932-10.024A1.988 1.988 0 0 0 .668.587 2.01 2.01 0 0 0 .08 2.01c0 .513.194 1.028.583 1.42l6.45 6.512c1.162.978 1.727 1.689 1.693 2.13-.033.442-.562 1.072-1.588 1.891L.593 20.56A2.006 2.006 0 0 0 0 21.989c0 .51.192 1.021.577 1.413.775.79 2.04.798 2.825.016l10.006-9.96z" fill="#9597A5" opacity=".5"/></svg>