<svg width="12" height="12" viewBox="0 0 12 12" xmlns="http://www.w3.org/2000/svg"><title>形状</title><path d="M11.13 6.679H9.648a.742.742 0 0 1 0-1.485h1.484a.742.742 0 0 1 0 1.485zM9.085 3.838a.743.743 0 0 1-1.049-1.05l1.05-1.049a.743.743 0 0 1 1.049 1.05l-1.05 1.049zm-3.148 8.035a.742.742 0 0 1-.742-.742V9.647a.742.742 0 0 1 1.485 0v1.484c0 .41-.333.742-.743.742zm0-8.905a.742.742 0 0 1-.742-.742V.742a.742.742 0 0 1 1.485 0v1.484c0 .41-.333.742-.743.742zM2.79 10.134a.743.743 0 0 1-1.05-1.05l1.05-1.049a.743.743 0 0 1 1.049 1.05l-1.05 1.049zm0-6.296l-1.05-1.05A.743.743 0 0 1 2.79 1.74l1.049 1.05a.743.743 0 0 1-1.05 1.049zm.18 2.098c0 .41-.333.743-.743.743H.742a.742.742 0 0 1 0-1.485h1.484c.41 0 .742.333.742.742zm6.115 2.099l1.05 1.05a.743.743 0 0 1-1.05 1.049l-1.049-1.05a.743.743 0 0 1 1.05-1.049z" fill="#265BED"/></svg>