<svg xmlns="http://www.w3.org/2000/svg" viewBox="0 0 160 48" class="design-iconfont"><path d="M58.719 34.195l.277-1.496.039-.218.059-.327.039-.218.039-.217c.232-1.306.45-2.59.616-3.646.159-.955-.387-1.092-1.183-1.092H57.49l.546-2.412a8.51 8.51 0 0 0 2.866 1.206l.592-2.003c-1.206-.295-3.162-1.206-3.754-2.275h3.504l.432-1.775h-6.097c.137-.341.296-.683.41-1.047h4.982l.432-1.82h-1.684c.433-.865.82-1.775 1.16-2.731h-2.388c-.296.91-.66 1.889-1.07 2.73h-.886c.227-.978.34-2.002.409-3.117h-2.411c-.069 1.115-.182 2.094-.41 3.118h-.819c-.205-.979-.387-1.82-.546-2.731H50.37l.546 2.73h-1.57l-.363 1.821h4.572a7.33 7.33 0 0 1-.477 1.047H48.8l-.364 1.775h3.435c-.933.887-2.32 1.593-3.822 2.002l-.478 2.276c.728-.16 1.479-.41 2.207-.728l-.728 3.732h7.758c.318 0 .455.136.386.455l-.637 3.117h-4.413l.41 1.844h6.165zm-17.358 0a91.541 91.541 0 0 0 1.729-7.123h1.547l-1.343 7.123h2.32l3.3-18.546c.181-1.115-.274-1.32-1.434-1.32h-4.322l-2.252 12.607a75.076 75.076 0 0 1-1.82 7.259h2.275zM46 19.722h-1.59l.614-3.459h1.138c.341 0 .478.068.41.432L46 19.722zm10.443 3.436h-3.527a8.497 8.497 0 0 0 1.616-1.661h.841c.273.591.637 1.16 1.07 1.661zm-11.466 2.048H43.43l.637-3.64h1.592l-.682 3.64zm10.169 1.775H51.78l.25-1.365-1.07-.729h4.642l-.455 2.094zm.273 4.483l.41-1.775h-8.577l.318 1.775h7.849zm14.65-12.789l-.955-4.779h-2.366c.091.531.185 1.062.279 1.593l.284 1.593c.094.531.188 1.062.279 1.593h2.48zm4.027 15.338l1.82-10.4h3.64c-.523 3.004-1.115 6.463-1.82 10.4h4.914l.819-2.117h-2.821c.448-2.483.918-5.13 1.388-7.788l.113-.638c.47-2.658.94-5.316 1.388-7.821.205-1.138-.023-1.548-1.41-1.548H71.276l.455 2.003h8.395c.523 0 .773.068.66.66a245.81 245.81 0 0 0-.888 4.915h-3.64l.57-3.231-2.208-1.639-.864 4.87h-3.071l-.387 1.934h3.117l-1.82 10.4h2.502zm-9.919.273c2.139-1.297 4.255-2.754 5.892-4.074l.546-2.958-.884.705-.198.158a63.3 63.3 0 0 1-1.92 1.481l1.729-9.717h-4.869l-.341 2.003h2.343l-2.298 12.402zm40.654-17.295l.34-2.093H90l-.341 2.093h15.174zm.591 17.204c-1.82-2.8-3.526-5.53-4.777-7.92h-2.821c.864 1.753 1.82 3.596 2.82 5.417H90.569c1.91-2.14 4.208-4.961 6.256-8.033h9.259l.318-2.094h-19.2l-.319 2.094h6.666c-2.093 3.3-4.846 6.826-7.871 10.126h14.628l.75-1.365c.319.591.637 1.183.978 1.775h3.39zm6.802-10.445c.637-.433 1.866-1.48 2.616-2.503.774.978 1.48 1.888 2.139 2.503h3.071c-1.334-1.034-2.119-1.782-2.874-2.592l-.064-.07a32.276 32.276 0 0 1-.065-.069h-2.025c.114-.16.25-.341.364-.523h4.755l.273-1.775h-4.072c.296-.638.5-1.252.66-1.82h2.866l.273-1.73h-5.483a6.68 6.68 0 0 0 .728-1.457h-2.252c-.364.956-1.183 1.957-2.32 2.48l-.364 2.254a8.765 8.765 0 0 0 2.707-1.548h1.592a9.808 9.808 0 0 1-.728 1.82h-4.003l-.273 1.776h3.093a19.207 19.207 0 0 1-3.662 3.254h3.048zm16.54-.069l.977-7.464c.114-1.07-.113-1.297-1.023-1.297h-6.78l-1.296 8.761h8.121zm-2.048-1.82h-3.572l.728-5.12h3.321c.182 0 .273.068.228.296l-.705 4.824zm-.615 12.334l1.024-7.578c.182-1.388.023-1.798-1.388-1.798h-14.605l-1.274 9.376h16.243zm-1.683-5.621H113.02l.25-1.912h11.102c.25 0 .273.114.25.342l-.204 1.57zm-.455 3.777H112.52l.25-1.957h11.443l-.25 1.957zm8.827 1.844c.446-1.664.946-3.78 1.437-6.219l.04-.198.138-.706h2.593l-1.114 7.123h2.434l2.775-18.751c.16-1.093-.273-1.297-1.501-1.297h-5.551a351.3 351.3 0 0 1-.594 4.262l-.041.28c-.382 2.61-.79 5.203-1.162 7.336-.592 3.39-1.229 5.94-1.934 8.17h2.48zm12.398 0a35.71 35.71 0 0 0 1.752-2.094c.432.706.864 1.388 1.342 2.094h2.912a44.972 44.972 0 0 1-2.798-4.005c1.092-1.548 1.956-3.095 2.707-4.506.387-.774.637-1.434.637-2.048 0-.615-.136-.888-.819-.888h-6.802l.933-6.576h4.618c.296 0 .364.114.318.387a60.866 60.866 0 0 1-.432 2.571h-3.435l.569 2.003h5.005c.34-1.889.682-3.96.91-5.644.136-1.024-.114-1.32-1.092-1.32h-8.554l-2.935 20.026h5.164zm-7.007-14.655h-2.57l.477-3.46h2.184c.364 0 .433.092.387.433l-.478 3.027zm-.887 5.666h-2.548l.592-3.823h2.548l-.592 3.823zm9.896 3.027a62.354 62.354 0 0 1-1.32-2.39h-2.206l.16-1.092h5.027c.16 0 .25.091.136.364-.41.842-1.114 2.07-1.797 3.118zm-4.663 5.711l1.114-7.85c.705 1.365 1.41 2.708 2.161 4.05a42.641 42.641 0 0 1-3.275 3.8zM32.64 18.514a1.646 1.646 0 0 1 1.582 2.1L30.003 35.33a3.29 3.29 0 0 1-3.163 2.384H14.126l1.384-4.8h10.194l2.752-9.6h-3.011l1.377-4.8h5.818zm-5.623-8.228l-1.385 4.8H15.44l-2.752 9.6h3.011l-1.377 4.8h-5.82a1.646 1.646 0 0 1-1.581-2.1L11.14 12.67a3.29 3.29 0 0 1 3.163-2.384h12.714zm-2.332 8.228l-3.18 10.971h-5.047l3.18-10.97h5.047z" fill="#FFF"/></svg>