<svg width="152" height="25" viewBox="0 0 152 25" xmlns="http://www.w3.org/2000/svg"><title>画板备份</title><path d="M40.67 6.6a8.6 8.6 0 0 1 1.39.112l-1.39 2.329c-3.174 0-5.747 2.489-5.747 5.559 0 3.07 2.573 5.56 5.747 5.56h9.693l3.376-5.655a3.577 3.577 0 0 1-.908-2.38c0-2.022 1.694-3.66 3.784-3.66s3.785 1.638 3.785 3.66c0 2.022-1.694 3.661-3.785 3.661-.236 0-.467-.02-.692-.06l-4.103 6.873-.006-.003v.004H40.67c-4.567 0-8.27-3.582-8.27-8s3.703-8 8.27-8zm16.071-4.8C62.738 1.8 67.6 6.456 67.6 12.2c0 5.744-4.862 10.4-10.859 10.4l1.543-2.56c3.863-.693 6.786-3.94 6.786-7.84 0-4.405-3.73-7.977-8.329-7.977-2.98 0-5.594 1.499-7.066 3.752l-.148.236-2.45 4.08c.57.636.914 1.463.914 2.366 0 2.007-1.7 3.635-3.796 3.635S40.4 16.664 40.4 14.657c0-2.008 1.7-3.635 3.795-3.635.236 0 .466.02.69.06l2.45-4.083C49.213 3.891 52.722 1.8 56.741 1.8zm51.909 15.013c.275 0 .345.083.307.371-.051.379-.123.827-.199 1.264l-.057.323h-1.408l-.16-.563h.966c.045-.224.096-.55.122-.723.01-.062 0-.094-.047-.105l-.043-.004h-1.299l-.262 1.85h1.913c.192 0 .23.076.23.25 0 .172-.07.358-.179.575-.21.397-.454.832-.761 1.267.162.26.333.515.512.762l.275.365h-.82a16.13 16.13 0 0 1-.377-.589c-.1.13-.22.277-.354.432l-.139.157h-1.452l.825-5.632h2.407zm-28.692 2.08l-.09.589h-2.604a20.558 20.558 0 0 1-1.554 2.024l-.206.235h2.835a37.87 37.87 0 0 1-.542-1.023l-.251-.5h.793c.302.576.698 1.222 1.127 1.89l.217.337h-.953l-.14-.25-.136-.25-.21.385h-4.116a21.751 21.751 0 0 0 1.951-2.447l.263-.401h-1.875l.09-.59h5.401zm13.44.915c.364 0 .432.097.401.414l-.01.092-.288 2.13h-4.57l.359-2.636h4.108zm11.898-3.002c.311 0 .44.047.43.28l-.008.085-.78 5.274h-.685l.313-2.003h-.73a30.98 30.98 0 0 1-.392 1.768l-.062.235h-.697a17.47 17.47 0 0 0 .544-2.298c.145-.834.31-1.918.448-2.918l.057-.423h1.562zm1.14 3.36l-.314 2.208c.352-.364.659-.723.921-1.068a38.93 38.93 0 0 1-.608-1.14zm-13.466 1.21h-3.22l-.07.55h3.22l.07-.55zm.044-1.05h-3.123l-.07.538h3.206l.058-.442c.006-.064 0-.096-.07-.096zm14.887-.537h-1.415l-.044.307h.62c.116.224.244.448.372.672.192-.294.39-.64.505-.877.032-.077.007-.102-.038-.102zm-3.085-.947h-.717l-.166 1.075h.717l.166-1.075zm-14.33-2.157a1.969 1.969 0 0 1-.123.275l-.081.134h1.542l-.077.487h-.806c-.03.106-.066.219-.11.335l-.076.177h1.146l-.077.499h-1.338l-.05.076-.052.071h.57c.192.209.384.398.684.642l.16.126h-.864c-.185-.173-.384-.429-.601-.704a3.499 3.499 0 0 1-.65.642l-.086.062h-.858c.277-.19.565-.424.834-.7l.197-.215h-.87l.076-.5h1.126c.056-.106.106-.218.148-.334l.057-.177h-.448c-.174.143-.368.27-.59.368l-.171.067.102-.634c.274-.126.483-.35.601-.582l.052-.115h.633zm3.75.339c.228 0 .304.05.296.273l-.007.092-.275 2.099h-2.285l.365-2.464h1.907zm-.428.512h-.934l-.205 1.44h1.005l.198-1.357c.013-.064-.013-.083-.064-.083zm11.117-.186h-.615l-.134.973h.723l.135-.851c.012-.096-.007-.122-.11-.122zm-25.312-.332l-.096.588h-4.269l.096-.588h4.269zm-35.418-3.573c-.698 0-1.265.543-1.265 1.212 0 .67.567 1.212 1.265 1.212.7 0 1.266-.543 1.266-1.212 0-.441-.246-.827-.614-1.039l-.04-.022a1.303 1.303 0 0 0-.612-.15zM82.832 1.848l-.32 1.776h-2.944L77.744 13.96h-2.16l1.824-10.336h-2.96l.32-1.776h8.064zm15.008 0l-.736 1.776h-3.008c-1.227 0-1.484.47-1.756 1.904l-.036.192-.576 3.2c-.192 1.024-.32 1.824-.32 2.256 0 .823.508.993 1.717 1.007l.187.001h2.976l-.752 1.776h-3.104c-2.24 0-3.184-.608-3.184-2.384 0-.436.04-.912.18-1.717l.044-.251.832-4.64c.419-2.372 1.167-3.076 3.323-3.118l.213-.002h4zm4.32 0l-2.128 12.112h-2.16l2.144-12.112h2.144zm9.6 0l-.736 1.76h-3.888c-.693 0-.847.142-.996.839l-.028.137-.192.992c-.08.416-.128.736-.128.88 0 .245.181.334.544.35l.128.002h2.048c1.36 0 2.224.192 2.224 1.392 0 .398-.114 1.188-.184 1.595l-.024.133-.288 1.6c-.372 2.09-1.253 2.412-3.267 2.431l-.205.001h-3.728l-.32-1.776h4.225c.88-.012 1.064-.15 1.25-1.079l.029-.153.16-.832c.112-.56.144-.912.144-1.088 0-.325-.19-.377-.673-.383l-2.511-.001c-1.296 0-1.728-.496-1.728-1.504 0-.282.041-.604.098-.96l.046-.272.304-1.696c.324-1.854.917-2.335 2.758-2.366l.202-.002h4.736zm-55.145 9.057c-.696 0-1.261.546-1.261 1.22 0 .445.245.833.612 1.047l.04.022c.18.097.388.152.61.152.696 0 1.26-.547 1.26-1.22 0-.675-.564-1.22-1.26-1.22zm31.177-2.849l-.304 1.712h-4.704l.304-1.712h4.704z" fill="#FFF" fill-rule="evenodd"/></svg>