<svg xmlns="http://www.w3.org/2000/svg" viewBox="0 0 112 48" class="design-iconfont"><g fill="#FFF" fill-rule="evenodd"><path d="M27.017 10.286l-1.385 4.8H15.44l-2.752 9.6h3.011l-1.377 4.8h-5.82a1.646 1.646 0 0 1-1.581-2.1L11.14 12.67a3.29 3.29 0 0 1 3.163-2.384h12.714zM14.126 37.714l1.384-4.8h10.194l2.752-9.6h-3.011l1.377-4.8h5.818a1.646 1.646 0 0 1 1.582 2.1L30.003 35.33a3.29 3.29 0 0 1-3.163 2.384H14.126z" fill-rule="nonzero"/><path d="M24.685 18.514l-3.18 10.971h-5.047l3.18-10.97h5.047z"/><path d="M44.687 34.286l3.1-17.555h5.003l.543-3.017H39.63l-.544 3.017h5.03l-3.1 17.555h3.67zm15.728-7.12l.517-2.908h-7.994l-.517 2.908h7.994zm14.777 7.12l1.278-3.017h-5.058c-2.284 0-3.235-.244-3.235-1.712 0-.733.217-2.092.544-3.831l.978-5.435c.49-2.69.87-3.56 3.046-3.56h5.112l1.25-3.017H72.31c-3.943 0-5.275 1.142-6.01 5.3l-1.413 7.88c-.3 1.63-.38 2.527-.38 3.343 0 3.016 1.603 4.049 5.41 4.049h5.275zm8.387 0l3.616-20.572h-3.643l-3.644 20.572h3.67zm12.166 0c3.67 0 5.248-.462 5.9-4.13l.49-2.718c.056-.294.148-.86.224-1.445l.012-.098c.066-.52.117-1.044.117-1.392 0-2.038-1.468-2.364-3.78-2.364h-3.48c-.76 0-1.141-.136-1.141-.598 0-.245.081-.788.217-1.495l.326-1.685c.272-1.386.49-1.657 1.74-1.657h6.608l1.25-2.99H96.18c-3.399 0-4.459.761-5.03 4.022l-.517 2.88c-.136.789-.244 1.495-.244 2.093 0 1.712.734 2.555 2.936 2.555h4.052c.978 0 1.36.054 1.36.652 0 .299-.055.897-.246 1.848l-.271 1.413c-.35 1.883-.62 2.088-2.367 2.092h-6.987l.544 3.017h6.335z" fill-rule="nonzero"/></g></svg>