<svg width="152" height="25" viewBox="0 0 152 25" xmlns="http://www.w3.org/2000/svg"><title>分组 2</title><g fill="#FFF" fill-rule="evenodd"><path d="M65.195 11.211c.54.988 2.328 1.828 3.43 2.101l-.54 1.85a7.475 7.475 0 0 1-2.64-1.135l-.48 2.248h1.02c.727 0 1.226.127 1.08 1.01a196.049 196.049 0 0 1-.976 5.652h-5.635l-.374-1.702h4.033c.208-.925.437-2.018.583-2.9.062-.294 0-.4-.292-.4h-7.152l.645-3.425a9.65 9.65 0 0 1-1.996.652l.436-2.102c1.04-.252 2.703-1.03 3.473-1.849h-3.12l.333-1.639h3.888c.188-.336.312-.672.437-.967H57.19l.332-1.68h1.435l-.499-2.522h2.183c.146.84.312 1.618.5 2.521h.706c.187-.756.374-1.87.416-2.879h2.204c-.083 1.135-.187 2.039-.395 2.88h.831c.375-.778.707-1.682.978-2.522h2.183a22.85 22.85 0 0 1-1.06 2.521h1.538l-.395 1.681h-4.553c-.125.316-.25.652-.395.967h5.593l-.395 1.64h-3.202zm-9.317-6.6c1.062 0 1.479.19 1.312 1.218l-3.02 17.108h-2.126l1.23-6.57h-1.417a84.952 84.952 0 0 1-1.583 6.57H48.19a69.667 69.667 0 0 0 1.667-6.696c.812-4.052 1.48-7.998 2.062-11.63h3.959zm-.837 2.215c.064-.332-.063-.394-.381-.394H53.6l-.55 3.155h1.462l.53-2.76zm8.038 4.38h-.767a10.515 10.515 0 0 1-1.512 1.537h3.253a6.617 6.617 0 0 1-.974-1.537zm-9.532 3.398l.627-3.358h-1.442a159.723 159.723 0 0 1-.606 3.358h1.42zm6.25 1.739h3.1l.33-1.54c.063-.296 0-.402-.289-.402h-3.865l.972.676-.248 1.266zm3.694 2.468l-.374 1.658H55.95l-.291-1.658h7.83zM76.542 8.455h-2.248l-.764-4.41h2.146l.866 4.41zm11.02-3.884c1.269 0 1.477.378 1.29 1.427-.854 4.807-1.79 10.222-2.643 14.987h2.58l-.749 1.952h-4.494c.624-3.631 1.165-6.822 1.665-9.592h-3.33l-1.664 9.592H77.93l1.664-9.592h-2.85l.354-1.784h2.808l.79-4.492 2.019 1.511-.52 2.98h3.329c.29-1.7.561-3.232.811-4.533.104-.546-.125-.609-.603-.609h-7.677l-.416-1.847h9.923zM75.823 9.506l-1.574 9.006c.849-.633 1.822-1.434 2.734-2.173l-.497 2.742c-1.492 1.223-3.418 2.573-5.365 3.775l2.092-11.494H71.08l.31-1.856h4.433zm32.805-4.368l-.311 1.941H94.493l.31-1.941h13.826zm-7.655 8.046c-1.851 2.802-3.995 5.435-5.742 7.436h9.217a129.08 129.08 0 0 1-2.58-5.014h2.58c1.144 2.212 2.705 4.74 4.37 7.33h-3.1a63.849 63.849 0 0 1-.895-1.642l-.687 1.264H90.758c2.788-3.076 5.327-6.362 7.2-9.374H91.86l.291-1.938h17.561l-.291 1.938h-8.448zm11.229.125c1.228-.837 2.352-1.757 3.35-2.99h-2.83l.25-1.632h3.6c.312-.586.562-1.213.75-1.673h-1.041c-.25.376-.5.732-.791 1.108h-2.539c1.353-1.61 2.29-3.032 2.789-4.036h2.31c-.25.46-.5.9-.75 1.338h4.933l-.25 1.59h-2.58a12.072 12.072 0 0 1-.646 1.673h3.725l-.25 1.631h-4.349a3.937 3.937 0 0 1-.333.481h1.852c.729.795 1.457 1.506 2.748 2.51h-2.81c-.75-.711-1.27-1.464-1.935-2.3-.75.962-1.832 1.903-2.414 2.3h-2.79zm17.917-8.131c.83 0 1.036.21.933 1.192l-.891 6.858h-7.397l1.18-8.05h6.175zm-1.182 1.97c.042-.208-.04-.271-.206-.271h-3.017l-.661 4.693h3.244l.64-4.422zm-1.553 7.213c1.288 0 1.433.376 1.267 1.652l-.935 6.964h-14.831l1.163-8.616h13.336zm-1.202 1.699h-10.177l-.229 1.78h10.448l.188-1.462c.02-.212 0-.318-.23-.318zm-10.848 5.218h10.493l.23-1.82h-10.493l-.23 1.82zm24.76-16.828c1.125 0 1.541.189 1.396 1.217l-2.541 17.27h-2.229l1.02-6.568h-2.373c-.48 2.602-1 4.847-1.48 6.568h-2.248c.624-2.057 1.208-4.428 1.77-7.533a316.59 316.59 0 0 0 1.645-10.954h5.04zm9.088 4.58a56.73 56.73 0 0 0 .395-2.374c.042-.252-.02-.357-.29-.357h-4.22l-.852 6.07h6.214c.624 0 .749.253.749.82s-.229 1.177-.582 1.89c-.686 1.303-1.476 2.732-2.474 4.16a41.527 41.527 0 0 0 2.557 3.698h-2.66a49.759 49.759 0 0 1-1.227-1.933c-.436.567-.977 1.24-1.6 1.933h-4.718l2.68-18.487h7.816c.894 0 1.122.273.998 1.218-.208 1.555-.52 3.467-.832 5.21h-4.573l-.52-1.848h3.14zm-9.965-2.365c.041-.312-.02-.395-.35-.395h-1.977c-.103.768-.247 1.91-.432 3.156h2.327l.432-2.761zm-3.563 7.939h2.315l.537-3.52h-2.314a92.323 92.323 0 0 1-.538 3.52zm12.883-.324h-4.546l-.144 1.003h1.995c.37.73.782 1.462 1.193 2.193.617-.961 1.255-2.089 1.625-2.862.103-.25.02-.334-.123-.334zm-5.774 8.414a38.994 38.994 0 0 0 2.971-3.485 127.201 127.201 0 0 1-1.96-3.715l-1.011 7.2z"/><path d="M14.2 11.156l2.801-4.907C19.147 2.513 23.157 0 27.75 0c6.853 0 12.409 5.596 12.409 12.5S34.603 25 27.749 25l1.764-3.077c4.414-.833 7.754-4.735 7.754-9.423 0-5.295-4.261-9.587-9.517-9.587-3.523 0-6.599 1.927-8.244 4.793l-2.8 4.904a4.37 4.37 0 0 1 1.044 2.843c0 2.413-1.942 4.369-4.337 4.369-2.395 0-4.337-1.956-4.337-4.369s1.942-4.369 4.337-4.369c.269 0 .532.025.788.072zm-.088 3.022a1.431 1.431 0 0 0-.7-.181c-.797 0-1.445.652-1.445 1.456 0 .804.648 1.456 1.446 1.456.798 0 1.446-.652 1.446-1.456 0-.53-.281-.994-.702-1.249l-.045-.026zm12.845 2.618L22.255 25l-.007-.004V25H9.478C4.242 25 0 20.726 0 15.453c0-5.273 4.243-9.547 9.477-9.547.543 0 1.075.046 1.593.134L9.477 8.82c-3.637 0-6.586 2.97-6.586 6.634s2.95 6.634 6.586 6.634h11.108l3.868-6.748a4.37 4.37 0 0 1-1.04-2.839c0-2.413 1.941-4.369 4.337-4.369 2.395 0 4.337 1.956 4.337 4.369s-1.942 4.369-4.337 4.369a4.33 4.33 0 0 1-.793-.073zm.094-3.02c.207.115.445.18.699.18a1.45 1.45 0 0 0 1.445-1.456 1.45 1.45 0 0 0-1.445-1.456 1.45 1.45 0 0 0-1.446 1.456c0 .53.28.994.701 1.249l.046.026z" fill-rule="nonzero"/></g></svg>