<svg width="120" height="120" viewBox="0 0 120 120" xmlns="http://www.w3.org/2000/svg"><title>信息120</title><path d="M115 60.679C115 90.376 90.376 115 59.321 115 29.624 115 5 90.376 5 60.679 5 29.624 29.624 5 59.321 5 90.376 5 115 29.624 115 60.679zM59.798 89.6h2.004c1.1 0 2.02-.895 2.048-1.999l.9-36.305a1.942 1.942 0 0 0-1.948-1.998h-4.004a1.935 1.935 0 0 0-1.948 1.998l.9 36.305a2.062 2.062 0 0 0 2.048 1.999zM60.8 34.4a4.8 4.8 0 1 0 0 9.6 4.8 4.8 0 0 0 0-9.6z" fill="#265BED" fill-rule="evenodd"/></svg>