<svg width="120" height="120" viewBox="0 0 120 120" xmlns="http://www.w3.org/2000/svg"><title>完成120</title><path d="M115 60.679C115 90.376 90.376 115 59.321 115 29.624 115 5 90.376 5 60.679 5 29.624 29.624 5 59.321 5 90.376 5 115 29.624 115 60.679zm-83.532 3.084L49.21 82.125a.992.992 0 0 0 1.405.015L89.72 43.654a.982.982 0 0 0-.004-1.409l-1.796-1.773c-.395-.39-1.057-.423-1.478-.072L50.666 70.205c-.417.347-1.115.364-1.55.03L34.792 59.258a.98.98 0 0 0-1.38.202l-2.044 2.78c-.328.447-.283 1.127.1 1.523z" fill="#41D017" fill-rule="evenodd"/></svg>