<svg width="110" height="110" viewBox="0 0 110 110" xmlns="http://www.w3.org/2000/svg"><title>画板</title><g fill="none"><path d="M41.533 34.99l6.416-10.992C52.864 15.63 62.05 10 72.572 10 88.272 10 101 22.536 101 38S88.272 66 72.572 66l4.04-6.892C86.724 57.242 94.376 48.5 94.376 38c0-11.86-9.762-21.476-21.804-21.476-8.07 0-15.116 4.318-18.886 10.736h-.001l-6.412 10.986a9.662 9.662 0 0 1 2.391 6.369c0 5.405-4.448 9.786-9.936 9.786-5.488 0-9.936-4.381-9.936-9.786 0-5.405 4.448-9.787 9.936-9.787.616 0 1.22.056 1.805.162zm-.204 6.768a3.337 3.337 0 0 0-1.601-.405c-1.83 0-3.312 1.46-3.312 3.262s1.483 3.262 3.312 3.262c1.83 0 3.312-1.46 3.312-3.262a3.25 3.25 0 0 0-1.606-2.797l-.105-.06zm29.426 5.865L59.985 66l-.017-.01V66H30.712C18.721 66 9 56.426 9 44.615c0-11.81 9.72-21.385 21.712-21.385 1.243 0 2.462.103 3.648.3l-3.648 6.224c-8.333 0-15.088 6.653-15.088 14.86 0 8.208 6.755 14.862 15.088 14.862h25.447l8.86-15.116A9.662 9.662 0 0 1 62.637 38c0-5.405 4.448-9.786 9.936-9.786 5.488 0 9.936 4.381 9.936 9.786 0 5.405-4.448 9.786-9.936 9.786-.62 0-1.228-.056-1.817-.163zm.216-6.767c.475.259 1.02.406 1.601.406 1.83 0 3.312-1.46 3.312-3.262s-1.483-3.262-3.312-3.262c-1.83 0-3.312 1.46-3.312 3.262a3.25 3.25 0 0 0 1.606 2.797l.105.06z" fill="#265CF0"/><path d="M20.03 88.73c.542.927 2.333 1.717 3.436 1.973l-.541 1.737a7.752 7.752 0 0 1-2.645-1.066l-.479 2.112h1.02c.73 0 1.23.118 1.084.947-.25 1.5-.625 3.552-.98 5.309h-5.642l-.375-1.599h4.04c.208-.868.437-1.894.583-2.723.062-.277 0-.375-.292-.375h-7.163l.645-3.217c-.645.276-1.312.474-1.999.612l.438-1.974c1.04-.237 2.707-.967 3.477-1.736h-3.123l.333-1.54h3.894c.187-.315.312-.631.437-.908h-4.165l.334-1.578h1.436l-.5-2.369h2.187c.146.79.312 1.52.5 2.369h.708c.187-.71.375-1.757.416-2.704h2.208c-.084 1.066-.188 1.914-.396 2.704h.833c.375-.73.708-1.58.979-2.369h2.186a20.75 20.75 0 0 1-1.062 2.369h1.541l-.396 1.578h-4.56c-.125.296-.25.612-.396.908h5.602l-.396 1.54H20.03zm-9.33-6.198c1.064 0 1.48.177 1.314 1.143L8.988 99.742H6.86l1.231-6.17H6.672a75.666 75.666 0 0 1-1.585 6.17H3a62.096 62.096 0 0 0 1.67-6.289c.813-3.805 1.48-7.51 2.065-10.921h3.964zm-.838 2.08c.063-.312-.064-.37-.382-.37H8.418l-.551 2.963H9.33l.53-2.593zm8.05 4.112h-.768c-.415.495-.934.99-1.515 1.444h3.258a6.176 6.176 0 0 1-.975-1.444zm-9.547 3.192l.628-3.154H7.549a141.57 141.57 0 0 1-.607 3.154h1.423zm6.26 1.633h3.104l.332-1.447c.062-.277 0-.376-.29-.376H13.9l.973.634-.249 1.19zm3.699 2.318l-.375 1.557h-7.177l-.291-1.557h7.843zm13.071-9.726h-2.252L28.38 82h2.149l.867 4.141zm11.037-3.647c1.27 0 1.48.355 1.292 1.34-.855 4.514-1.792 9.6-2.647 14.074h2.584l-.75 1.834h-4.5c.624-3.41 1.166-6.407 1.666-9.009h-3.334l-1.667 9.009h-2.292l1.667-9.009h-2.854l.354-1.675h2.813l.792-4.218 2.02 1.419-.52 2.799h3.334a213 213 0 0 1 .812-4.258c.104-.512-.125-.571-.604-.571h-7.689l-.416-1.735h9.939zm-11.756 4.635L29.1 95.586c.851-.594 1.826-1.347 2.739-2.04l-.498 2.574c-1.494 1.15-3.423 2.417-5.373 3.546l2.095-10.794h-2.137l.312-1.743h4.44zm32.855-4.103l-.311 1.823H49.374l.311-1.823h13.846zm-7.666 7.556c-1.855 2.631-4 5.104-5.751 6.984h9.231a118.606 118.606 0 0 1-2.584-4.709h2.584c1.146 2.078 2.71 4.451 4.376 6.885h-3.105a63.195 63.195 0 0 1-.896-1.543l-.687 1.187h-13.4c2.793-2.889 5.335-5.975 7.21-8.804h-6.105l.292-1.82h17.587l-.291 1.82h-8.46zm11.246.118c1.23-.786 2.355-1.65 3.356-2.809h-2.835l.25-1.532h3.606c.313-.55.563-1.14.75-1.571h-1.042c-.25.353-.5.687-.792 1.04h-2.543c1.355-1.512 2.293-2.847 2.793-3.79h2.314c-.25.432-.5.845-.75 1.257h4.94l-.251 1.493h-2.584c-.126.412-.355.982-.647 1.571h3.731l-.25 1.532h-4.356c-.104.157-.208.314-.333.452h1.855c.729.746 1.459 1.414 2.75 2.357H74.26c-.75-.668-1.271-1.375-1.938-2.16-.75.903-1.835 1.787-2.418 2.16H67.11zm17.945-7.636c.83 0 1.037.196.934 1.119l-.893 6.44H77.69l1.183-7.56h6.184zm-1.184 1.85c.042-.196-.041-.255-.207-.255h-3.021l-.663 4.407h3.25l.641-4.152zm-1.556 6.774c1.29 0 1.436.353 1.27 1.551l-.937 6.54H67.795l1.165-8.091h13.356zm-1.203 1.595H70.92l-.23 1.672h10.465l.188-1.373c.02-.2 0-.299-.23-.299zm-10.865 4.901h10.509l.23-1.71h-10.51l-.229 1.71zM95.046 82.38c1.126 0 1.544.177 1.398 1.143l-2.545 16.219h-2.232l1.022-6.169h-2.378c-.48 2.444-1.001 4.553-1.48 6.169h-2.254c.626-1.932 1.21-4.158 1.773-7.075a280.068 280.068 0 0 0 1.648-10.287h5.048zm9.102 4.3c.146-.69.312-1.696.396-2.229.041-.236-.021-.335-.292-.335h-4.226l-.853 5.702h6.224c.625 0 .75.237.75.77 0 .532-.23 1.104-.583 1.775-.687 1.223-1.478 2.565-2.478 3.906a39.034 39.034 0 0 0 2.56 3.473h-2.664a46.433 46.433 0 0 1-1.228-1.815 31.363 31.363 0 0 1-1.603 1.815h-4.725L98.11 82.38h7.827c.895 0 1.124.256 1 1.144-.209 1.46-.52 3.256-.833 4.893h-4.58l-.52-1.736h3.143zm-9.98-2.22c.041-.293-.02-.37-.35-.37h-1.981c-.103.72-.247 1.793-.433 2.963h2.33l.434-2.593zm-3.569 7.456h2.318l.538-3.306h-2.318a81.687 81.687 0 0 1-.538 3.306zm12.902-.304H98.95l-.145.941h1.999c.37.687.782 1.373 1.195 2.06.618-.902 1.256-1.962 1.627-2.687.103-.236.02-.314-.124-.314zm-5.783 7.902a37.354 37.354 0 0 0 2.977-3.274 117.078 117.078 0 0 1-1.964-3.489l-1.013 6.763z" fill="#000"/></g></svg>